<svg xmlns="http://www.w3.org/2000/svg" viewBox="0 0 384 384.00289" id="svg-a084" class="u-svg-content" style="fill: #61a734;"><path d="m16 384.003906c4.09375 0 8.191406-1.5625 11.3125-4.6875l80.542969-80.546875c24.59375 19.378907 54.335937 29.136719 84.136719 29.136719 34.832031 0 69.679687-13.238281 96.207031-39.726562 48.769531-48.847657 90.832031-246.554688 95.464843-268.9375 1.09375-5.28125-.542968-10.75-4.351562-14.558594s-9.28125-5.441406-14.5625-4.351563c-22.382812 4.640625-220.085938 46.695313-268.941406 95.480469-19.320313 19.308594-32.265625 43.695312-37.441406 70.511719-1.671876 8.679687 4 17.070312 12.671874 18.742187 8.671876 1.664063 17.074219-4 18.746094-12.671875 3.957032-20.519531 13.863282-39.175781 28.636719-53.953125 31.496094-31.4375 159.105469-65.613281 228.617187-81.488281-15.871093 69.515625-50.039062 197.121094-81.464843 228.59375-36.703125 36.648437-94.183594 40.015625-134.855469 10.351563l24.585938-24.582032c.007812-.007812.015624-.015625.023437-.027344l27.296875-27.285156h73.375c8.832031 0 16-7.167968 16-16 0-8.832031-7.167969-16-16-16h-41.375l52.6875-52.6875c6.246094-6.25 6.246094-16.378906 0-22.625-6.242188-6.25-16.386719-6.25-22.625 0l-79.992188 79.992188c-.007812.007812-.015624.015625-.023437.023437l-4.671875 4.671875v-41.375c0-8.832031-7.167969-16-16-16s-16 7.167969-16 16v73.375l-19.9375 19.9375c-4.597656-6.289062-8.527344-13-11.566406-20.183594-3.449219-8.136718-12.824219-11.953124-20.976563-8.496093-8.136719 3.445312-11.945312 12.832031-8.496093 20.972656 4.65625 10.992187 10.816406 21.175781 18.207031 30.546875l-80.542969 80.535156c-6.25 6.246094-6.25 16.375 0 22.625 3.121094 3.125 7.214844 4.6875 11.3125 4.6875zm0 0"></path></svg>